<svg xmlns="http://www.w3.org/2000/svg" xmlns:xlink="http://www.w3.org/1999/xlink" width="16px" height="14px" viewBox="0 0 15 14" version="1.1">
<path d="M 14.316406 3.394531 C 14.152344 2.746094 13.667969 2.238281 13.058594 2.0625 C 11.949219 1.75 7.5 1.75 7.5 1.75 C 7.5 1.75 3.050781 1.75 1.941406 2.0625 C 1.332031 2.238281 0.847656 2.746094 0.683594 3.394531 C 0.386719 4.566406 0.386719 7.011719 0.386719 7.011719 C 0.386719 7.011719 0.386719 9.457031 0.683594 10.628906 C 0.847656 11.277344 1.332031 11.761719 1.941406 11.9375 C 3.050781 12.25 7.5 12.25 7.5 12.25 C 7.5 12.25 11.949219 12.25 13.058594 11.9375 C 13.667969 11.761719 14.152344 11.273438 14.316406 10.628906 C 14.613281 9.457031 14.613281 7.011719 14.613281 7.011719 C 14.613281 7.011719 14.613281 4.566406 14.316406 3.394531 Z M 6.046875 9.230469 L 6.046875 4.789062 L 9.761719 7.011719 Z M 6.046875 9.230469 " fill=""/>
</svg>
